<svg xmlns="http://www.w3.org/2000/svg" width="32" height="32" viewBox="0 0 32 32"><title>brand3</title><path d="M0 14.69v2.52c0 2.59.32 5.18.32 5.18s.312 2.2 1.272 3.174c1.216 1.274 2.816 1.234 3.528 1.368 2.56.246 10.88.32 10.88.32s6.724-.008 11.2-.332c.628-.076 1.992-.08 3.208-1.356.96-.972 1.272-3.176 1.272-3.176s.32-2.588.32-5.18v-2.516c0-2.592-.32-5.18-.32-5.18s-.312-2.204-1.272-3.176c-1.216-1.276-2.58-1.28-3.208-1.356-4.476-.324-11.2-.332-11.2-.332s-8.32.072-10.88.32c-.712.134-2.312.094-3.528 1.368C.632 7.31.32 9.51.32 9.51S0 12.102 0 14.69zm12.696 5.46v-8.99l8.646 4.51-8.64 4.48z"/></svg>